{
  "accessors": [
    {
      "bufferView": 2,
      "componentType": 5126,
      "count": 65532,
      "max": [
        2.8759338855743408,
        0.89372402429580688,
        1.5517970323562622
      ],
      "min": [
        -1.0525059700012207,
        -3.6103429794311523,
        -1.6742500066757202
      ],
      "type": "VEC3"
    },
    {
      "bufferView": 2,
      "byteOffset": 786384,
      "componentType": 5126,
      "count": 65532,
      "max": [
        0.99988722801208496,
        0.99999266862869263,
        0.9999312162399292
      ],
      "min": [
        -0.99982833862304688,
        -0.99999576807022095,
        -0.99985754489898682
      ],
      "type": "VEC3"
    },
    {
      "bufferView": 3,
      "componentType": 5126,
      "count": 65532,
      "max": [
        0.99996280670166016,
        0.99996167421340942,
        0.99999970197677612,
        1
      ],
      "min": [
        -0.99995028972625732,
        -0.99999946355819702,
        -0.99999994039535522,
        -1
      ],
      "type": "VEC4"
    },
    {
      "bufferView": 1,
      "componentType": 5126,
      "count": 65532,
      "max": [
        0.99955999851226807,
        0.9995800256729126
      ],
      "min": [
        0.00042500000563450158,
        0.00063000002410262823
      ],
      "type": "VEC2"
    },
    {
      "bufferView": 0,
      "componentType": 5125,
      "count": 187092,
      "max": [
        65531
      ],
      "min": [
        0
      ],
      "type": "SCALAR"
    },
    {
      "bufferView": 2,
      "byteOffset": 1572768,
      "componentType": 5126,
      "count": 3522,
      "max": [
        2.8759338855743408,
        0.8663560152053833,
        1.5226689577102661
      ],
      "min": [
        -1.0086489915847778,
        -3.6103429794311523,
        -1.6630309820175171
      ],
      "type": "VEC3"
    },
    {
      "bufferView": 2,
      "byteOffset": 1615032,
      "componentType": 5126,
      "count": 3522,
      "max": [
        0.99937933683395386,
        0.99878674745559692,
        0.99721276760101318
      ],
      "min": [
        -0.9991033673286438,
        -0.99925446510314941,
        -0.99985754489898682
      ],
      "type": "VEC3"
    },
    {
      "bufferView": 3,
      "byteOffset": 1048512,
      "componentType": 5126,
      "count": 3522,
      "max": [
        0.99843525886535645,
        0.99996167421340942,
        0.99998980760574341,
        1
      ],
      "min": [
        -0.99987614154815674,
        -0.99994140863418579,
        -0.99945402145385742,
        -1
      ],
      "type": "VEC4"
    },
    {
      "bufferView": 1,
      "byteOffset": 524256,
      "componentType": 5126,
      "count": 3522,
      "max": [
        0.99955397844314575,
        0.99954801797866821
      ],
      "min": [
        0.00049800000851973891,
        0.000699999975040555
      ],
      "type": "VEC2"
    },
    {
      "bufferView": 0,
      "byteOffset": 748368,
      "componentType": 5125,
      "count": 5280,
      "max": [
        3521
      ],
      "min": [
        0
      ],
      "type": "SCALAR"
    }
  ],
  "asset": {
    "extras": {
      "author": "Z3D Scanning Services (https://sketchfab.com/3d_scanning_nz)",
      "license": "CC-BY-4.0 (http://creativecommons.org/licenses/by/4.0/)",
      "source": "https://sketchfab.com/3d-models/3d-scan-dragon-fruit-pitaya-c7833d1adf434d66a694d732f6dc5446",
      "title": "3D Scan: Dragon Fruit / Pitaya"
    },
    "generator": "Sketchfab-9.12.0",
    "version": "2.0"
  },
  "bufferViews": [
    {
      "buffer": 0,
      "byteLength": 769488,
      "byteOffset": 0,
      "name": "floatBufferViews",
      "target": 34963
    },
    {
      "buffer": 0,
      "byteLength": 552432,
      "byteOffset": 769488,
      "byteStride": 8,
      "name": "floatBufferViews",
      "target": 34962
    },
    {
      "buffer": 0,
      "byteLength": 1657296,
      "byteOffset": 1321920,
      "byteStride": 12,
      "name": "floatBufferViews",
      "target": 34962
    },
    {
      "buffer": 0,
      "byteLength": 1104864,
      "byteOffset": 2979216,
      "byteStride": 16,
      "name": "floatBufferViews",
      "target": 34962
    }
  ],
  "buffers": [
    {
      "byteLength": 4084080,
      "uri": "scene.bin"
    }
  ],
  "extensionsRequired": [
    "KHR_materials_pbrSpecularGlossiness"
  ],
  "extensionsUsed": [
    "KHR_materials_pbrSpecularGlossiness"
  ],
  "images": [
    {
      "uri": "textures/material_0_diffuse.jpeg"
    },
    {
      "uri": "textures/material_0_specularGlossiness.png"
    },
    {
      "uri": "textures/material_0_normal.jpeg"
    }
  ],
  "materials": [
    {
      "doubleSided": false,
      "emissiveFactor": [
        0.078125,
        0.078125,
        0.078125
      ],
      "emissiveTexture": {
        "index": 0,
        "texCoord": 0
      },
      "extensions": {
        "KHR_materials_pbrSpecularGlossiness": {
          "diffuseFactor": [
            0.6814374766382959,
            0.6814374766382959,
            0.6814374766382959,
            1
          ],
          "diffuseTexture": {
            "index": 0,
            "texCoord": 0
          },
          "glossinessFactor": 0.77700000000000002,
          "specularFactor": [
            0.032015886708579078,
            0.032015886708579078,
            0.032015886708579078
          ],
          "specularGlossinessTexture": {
            "index": 1,
            "texCoord": 0
          }
        }
      },
      "name": "material_0",
      "normalTexture": {
        "index": 2,
        "scale": 1,
        "texCoord": 0
      }
    }
  ],
  "meshes": [
    {
      "primitives": [
        {
          "attributes": {
            "NORMAL": 1,
            "POSITION": 0,
            "TANGENT": 2,
            "TEXCOORD_0": 3
          },
          "indices": 4,
          "material": 0,
          "mode": 4
        }
      ]
    },
    {
      "primitives": [
        {
          "attributes": {
            "NORMAL": 6,
            "POSITION": 5,
            "TANGENT": 7,
            "TEXCOORD_0": 8
          },
          "indices": 9,
          "material": 0,
          "mode": 4
        }
      ]
    }
  ],
  "nodes": [
    {
      "children": [
        1
      ],
      "name": "RootNode (gltf orientation matrix)",
      "rotation": [
        -0.70710678118654746,
        -0,
        -0,
        0.70710678118654757
      ]
    },
    {
      "children": [
        2
      ],
      "matrix": [
        0.55801591534337547,
        0.035909308958247177,
        -0.013253513671219297,
        0,
        -0.011078593395919656,
        -0.03386210221852326,
        -0.55819130918232318,
        0,
        -0.036638759465832393,
        0.55714521378629556,
        -0.033071460981176859,
        0,
        2.0419743061065674,
        -9.8845882415771484,
        -11.552364349365234,
        1
      ],
      "name": "RootNode (model correction matrix)"
    },
    {
      "children": [
        3,
        4
      ],
      "name": "dragonFruit_low2.obj.cleaner.materialmerger.gles"
    },
    {
      "mesh": 0,
      "name": ""
    },
    {
      "mesh": 1,
      "name": ""
    }
  ],
  "samplers": [
    {
      "magFilter": 9729,
      "minFilter": 9987,
      "wrapS": 10497,
      "wrapT": 10497
    }
  ],
  "scene": 0,
  "scenes": [
    {
      "name": "OSG_Scene",
      "nodes": [
        0
      ]
    }
  ],
  "textures": [
    {
      "sampler": 0,
      "source": 0
    },
    {
      "sampler": 0,
      "source": 1
    },
    {
      "sampler": 0,
      "source": 2
    }
  ]
}

